<svg width="51" height="36" viewBox="0 0 51 36" fill="none" xmlns="http://www.w3.org/2000/svg">
<path d="M28.2656 16.5156V11.8281H23.1094V16.5156H28.2656ZM28.2656 0.5H23.1094V5.26562H28.2656V0.5ZM34.4375 11.8281H29.2812V16.5156H34.4375V11.8281ZM22.1719 6.20312H17.0156V10.8906H22.1719V6.20312ZM28.2656 6.20312H23.1094V10.8906H28.2656V6.20312ZM49.9062 14.0156C48.8125 13.2344 46.2344 13 44.2031 13.3906C43.9688 11.5156 42.875 9.875 41 8.39062L39.9062 7.6875L39.2031 8.78125C37.7188 10.9688 37.3281 14.4844 38.8906 16.9062C38.1875 17.2188 36.8594 17.7656 35.1406 17.6875H1.15625C0.453125 21.6719 1.625 26.8281 4.59375 30.3438C7.48438 33.7812 11.8594 35.5781 17.4844 35.5781C29.8281 35.5781 38.8906 29.875 43.1875 19.5625C44.8281 19.6406 48.4219 19.5625 50.2969 16.0469C50.4531 15.8906 50.8438 15.0312 51 14.7188L49.9062 14.0156ZM9.98438 11.8281H4.82812V16.5156H9.98438V11.8281ZM16.0781 11.8281H10.9219V16.5156H16.0781V11.8281ZM22.1719 11.8281H17.0156V16.5156H22.1719V11.8281ZM16.0781 6.20312H10.9219V10.8906H16.0781V6.20312Z" fill="#38A2F1"/>
</svg>
