<svg width="20" height="40" viewBox="0 0 20 40" fill="none" xmlns="http://www.w3.org/2000/svg">
<path d="M16.3281 30.625C13.2812 31.875 6.64062 31.9531 3.4375 30.625L4.60938 32.5781L5 38.75C5 39.4531 7.26562 40 10 40C12.6562 40 14.9219 39.4531 14.9219 38.75L15.2344 32.5L16.3281 30.625ZM1.01562 10.7812L2.10938 20.625C2.57812 19.0625 3.75 16.9531 5.23438 16.3281C5.70312 16.0938 6.25 16.0938 6.71875 16.3281C7.10938 16.5625 7.42188 17.1094 7.5 17.2656C7.57812 17.8125 7.34375 17.9688 7.10938 17.9688C6.875 17.9688 6.71875 17.6562 6.5625 17.4219C6.25 16.875 5.78125 16.7969 5.3125 17.1875C4.76562 17.5781 4.29688 18.2812 3.90625 18.8281C3.51562 19.5312 3.20312 20.2344 2.96875 21.0156C2.89062 21.4844 2.8125 22.1875 2.96875 22.5781C3.04688 22.7344 3.125 22.8906 3.35938 22.8906C3.75 22.8906 4.29688 22.3438 4.60938 22.1094C4.92188 21.7188 5.39062 21.1719 5.54688 20.8594L5.9375 19.6094C6.17188 19.0625 6.71875 19.1406 6.71875 19.6094C6.71875 20.3906 6.40625 20.7031 5.9375 22.3438C5.46875 23.8281 5.39062 24.375 5.39062 24.375C5.3125 24.5312 5.07812 24.9219 4.84375 24.9219C4.76562 24.9219 4.6875 24.9219 4.6875 24.8438C4.60938 24.6875 4.60938 24.4531 4.60938 24.375C4.60938 24.0625 5.07812 22.5781 5.15625 22.3438C5 22.5781 4.84375 22.7344 4.6875 22.8906C4.21875 23.2812 3.59375 23.8281 2.96875 23.8281C2.73438 23.8281 2.57812 23.75 2.42188 23.5938L2.96875 29.8438C3.125 30.2344 6.01562 31.1719 9.84375 31.1719C13.6719 31.1719 16.6406 30.2344 16.7969 29.8438L17.5781 22.4219C17.1875 22.8906 16.6406 23.3594 16.0938 23.5938C15.625 23.75 14.6875 23.9062 14.6875 23.125C14.6875 22.7344 15.4688 22.0312 15.8594 21.4844C15.9375 21.3281 16.25 21.0156 16.25 20.8594C16.25 20.625 15.7812 20.7031 15.3125 21.0156C15.0781 21.25 14.8438 21.5625 14.6094 21.7969C14.2969 22.2656 14.1406 22.6562 13.9844 23.0469C13.4375 24.1406 13.6719 23.6719 13.2812 24.7656C12.8906 25.7812 12.8906 25.625 12.8125 25.8594C12.7344 25.9375 12.6562 26.0938 12.5 26.1719C12.3438 26.25 12.1875 26.25 12.0312 26.1719C11.9531 26.0938 11.9531 26.0156 11.9531 25.8594C11.9531 25.7812 11.9531 25.7031 11.9531 25.625C12.1094 25.1562 12.5781 24.2188 13.125 22.9688C13.2812 22.6562 13.2031 22.7344 13.2031 22.8125C12.7344 23.2812 12.3438 23.5156 12.1094 23.5938C11.6406 23.8281 11.0938 23.8281 10.9375 23.2812V23.2031C10 23.9062 9.0625 24.1406 9.375 22.5781C8.98438 23.2031 8.35938 23.75 7.65625 23.75C7.26562 23.75 7.03125 23.5938 6.95312 23.3594C6.79688 22.8906 7.03125 22.1875 7.34375 21.4844C7.42188 21.0938 7.65625 20.7031 7.89062 20.2344C7.96875 19.9219 8.20312 19.7656 8.4375 19.8438C8.51562 19.8438 8.51562 19.9219 8.59375 19.9219C8.75 20.0781 8.67188 20.2344 8.59375 20.4688C8.28125 21.0938 8.04688 21.4844 7.89062 22.1094C7.8125 22.3438 7.73438 22.8125 7.96875 22.8125C8.20312 22.8125 8.35938 22.7344 8.51562 22.5781C8.90625 22.3438 9.21875 21.9531 9.375 21.5625C9.53125 21.25 9.76562 20.9375 9.84375 20.625C9.84375 20.4688 9.92188 20.3125 10 20.2344C10.0781 20 10.1562 19.8438 10.3906 19.8438C10.4688 19.8438 10.5469 19.8438 10.625 19.9219C10.7812 20.0781 10.7031 20.3125 10.7031 20.4688C10.5469 20.9375 10.3125 21.3281 10.1562 21.7969C10 22.0312 9.92188 22.4219 9.92188 22.7344C9.92188 22.9688 10.2344 22.8906 10.4688 22.8125C10.625 22.7344 10.8594 22.5781 11.0156 22.4219C11.0938 22.0312 11.0156 22.1094 13.0469 17.1094C13.125 16.875 13.3594 16.7188 13.5156 16.7188C13.5938 16.7188 13.6719 16.7969 13.75 16.7969C13.9062 16.9531 13.9062 17.1875 13.8281 17.3438C13.8281 17.5 13.8281 17.4219 13.5156 18.125C13.125 19.0625 12.8125 19.7656 12.5 20.625C12.3438 21.0156 11.875 22.1094 11.7969 22.3438C11.7188 22.5781 11.7188 22.8125 11.875 22.8125C12.2656 22.8125 13.3594 21.7969 13.6719 21.4844C13.6719 21.4844 13.6719 21.4844 13.75 21.4844C13.75 21.3281 13.8281 21.1719 13.9062 21.0156C13.9844 20.7031 14.0625 20.3906 14.2969 20.1562C14.375 20.0781 14.4531 20 14.5312 20C14.6875 20 14.8438 20.0781 14.8438 20.3125C14.8438 20.3906 14.7656 20.7031 14.7656 20.7812C14.8438 20.7031 15 20.5469 15.0781 20.4688C16.25 19.375 17.1094 19.9219 17.1094 20.4688C17.1094 21.0156 16.4062 21.875 16.0156 22.2656C15.8594 22.4219 15.625 22.7344 15.625 22.8125C15.625 22.8906 15.7031 22.9688 15.7812 22.9688C15.9375 22.9688 16.3281 22.6562 16.4062 22.5781C16.7969 22.2656 17.3438 21.7969 17.7344 21.4844L18.9062 10.7812C16.4844 12.1094 3.4375 12.1094 1.01562 10.7812ZM18.9844 10.1562C18.9844 9.60938 16.7969 9.21875 13.6719 8.98438L14.4531 5.78125L18.9844 1.09375C19.0625 0.9375 18.9062 0.625 18.5938 0.390625C18.2031 0.078125 17.8906 0 17.8125 0.078125L12.9688 5.15625L12.0312 8.90625C11.3281 8.90625 10.625 8.90625 9.92188 8.90625C5 8.90625 0.9375 9.45312 0.9375 10.1562C0.9375 11.7969 18.9844 11.7969 18.9844 10.1562ZM13.5938 10.4688C13.5938 10.625 13.0469 10.7812 12.5 10.7812C11.875 10.7812 11.4062 10.625 11.4062 10.4688C11.4062 10.3906 11.4844 10.3906 11.6406 10.3125V10.3906C11.6406 10.4688 12.0312 10.5469 12.5 10.5469C12.9688 10.5469 13.3594 10.4688 13.3594 10.3906V10.3125C13.5156 10.3906 13.5938 10.4688 13.5938 10.4688Z" fill="#EB4A4B"/>
</svg>
