<svg width="40" height="39" fill="none" xmlns="http://www.w3.org/2000/svg"><path d="M36.529.25H3.443C1.982.25.779 1.54.779 3.086V36c0 1.547 1.203 2.75 2.664 2.75h33.086c1.46 0 2.75-1.203 2.75-2.75V3.086c0-1.547-1.29-2.836-2.75-2.836zm-24.149 33H6.708V14.945h5.672V33.25zM9.544 12.367c-1.89 0-3.351-1.46-3.351-3.265 0-1.805 1.46-3.352 3.351-3.352 1.805 0 3.266 1.547 3.266 3.352a3.264 3.264 0 01-3.266 3.265zM33.78 33.25H28.02v-8.938c0-2.062 0-4.812-2.922-4.812-3.008 0-3.437 2.32-3.437 4.727v9.023H15.99V14.945h5.414v2.492h.086c.773-1.46 2.664-3.007 5.414-3.007 5.758 0 6.875 3.867 6.875 8.765V33.25z" fill="#0077B5"/></svg>