<svg xmlns="http://www.w3.org/2000/svg" width="337" height="32"  xmlns:v="https://vecta.io/nano"><path d="M13.918 2.021c2.506 0 4.675.418 6.508 1.253 1.859.835 3.288 2.021 4.285 3.557s1.496 3.355 1.496 5.457c0 2.075-.499 3.894-1.496 5.457-.997 1.536-2.425 2.722-4.285 3.557-1.832.808-4.002 1.213-6.508 1.213H8.219v7.801H1.671V2.021h12.248zm-.363 15.158c1.967 0 3.463-.418 4.487-1.253 1.024-.862 1.536-2.075 1.536-3.638 0-1.59-.512-2.803-1.536-3.638-1.024-.862-2.52-1.293-4.487-1.293H8.219v9.822h5.336zm38.144 2.344c0 .081-.04.647-.121 1.698H35.127c.296 1.347.997 2.412 2.102 3.193s2.479 1.172 4.123 1.172c1.132 0 2.129-.162 2.991-.485.889-.35 1.711-.889 2.466-1.617l3.355 3.638c-2.048 2.344-5.039 3.517-8.973 3.517-2.452 0-4.621-.472-6.508-1.415-1.886-.97-3.341-2.304-4.365-4.002s-1.536-3.624-1.536-5.78c0-2.129.499-4.042 1.496-5.74A10.61 10.61 0 0 1 34.441 9.7c1.779-.97 3.759-1.455 5.942-1.455 2.129 0 4.056.458 5.78 1.374s3.072 2.237 4.042 3.961c.997 1.698 1.496 3.678 1.496 5.942zm-11.277-6.507c-1.428 0-2.627.404-3.597 1.213s-1.563 1.913-1.779 3.315h10.712c-.216-1.374-.808-2.466-1.779-3.274-.97-.835-2.156-1.253-3.557-1.253zm29.501 16.249c-.62.458-1.388.808-2.304 1.051a11.95 11.95 0 0 1-2.829.323c-2.587 0-4.595-.66-6.023-1.981-1.401-1.32-2.102-3.261-2.102-5.821v-8.933H53.31V9.053h3.355V3.758h6.306v5.295h5.416v4.851h-5.416v8.852c0 .916.229 1.63.687 2.142.485.485 1.159.728 2.021.728.997 0 1.846-.269 2.547-.808l1.698 4.446zm24.171-9.742c0 .081-.04.647-.121 1.698H77.522c.296 1.347.997 2.412 2.102 3.193s2.479 1.172 4.123 1.172c1.132 0 2.129-.162 2.991-.485.889-.35 1.711-.889 2.466-1.617l3.355 3.638c-2.048 2.344-5.039 3.517-8.973 3.517-2.452 0-4.621-.472-6.508-1.415-1.886-.97-3.341-2.304-4.365-4.002s-1.536-3.624-1.536-5.78c0-2.129.499-4.042 1.496-5.74A10.61 10.61 0 0 1 76.836 9.7c1.779-.97 3.759-1.455 5.942-1.455 2.129 0 4.056.458 5.78 1.374s3.072 2.237 4.042 3.961c.997 1.698 1.496 3.678 1.496 5.942zm-11.278-6.507c-1.428 0-2.627.404-3.597 1.213s-1.563 1.913-1.779 3.315h10.712c-.216-1.374-.808-2.466-1.779-3.274-.97-.835-2.156-1.253-3.557-1.253zm21.499-1.577c.755-1.051 1.765-1.846 3.032-2.385 1.293-.539 2.776-.808 4.446-.808v5.821l-1.415-.081c-1.805 0-3.22.512-4.244 1.536-1.024.997-1.536 2.506-1.536 4.527v10.267h-6.306V8.569h6.023v2.87zm18.622 19.2c-1.805 0-3.571-.216-5.295-.647-1.725-.458-3.099-1.024-4.123-1.698l2.102-4.527c.97.62 2.142 1.132 3.517 1.536a15.24 15.24 0 0 0 4.042.566c2.668 0 4.002-.66 4.002-1.981 0-.62-.364-1.064-1.091-1.334s-1.846-.499-3.355-.687c-1.779-.269-3.247-.579-4.406-.93s-2.169-.97-3.032-1.859c-.835-.889-1.253-2.156-1.253-3.8 0-1.374.391-2.587 1.172-3.638.808-1.078 1.967-1.913 3.476-2.506 1.536-.593 3.341-.889 5.416-.889 1.536 0 3.059.175 4.568.525 1.536.323 2.803.781 3.8 1.374l-2.102 4.487c-1.913-1.078-4.002-1.617-6.265-1.617-1.347 0-2.358.189-3.032.566s-1.011.862-1.011 1.455c0 .674.364 1.145 1.091 1.415s1.886.525 3.476.768c1.779.296 3.234.62 4.365.97 1.132.323 2.115.93 2.951 1.819s1.253 2.129 1.253 3.719c0 1.347-.404 2.547-1.213 3.597s-1.994 1.873-3.557 2.466c-1.536.566-3.368.849-5.497.849zm24.505 0c-2.291 0-4.352-.472-6.184-1.415-1.805-.97-3.22-2.304-4.244-4.002s-1.536-3.624-1.536-5.78.512-4.083 1.536-5.78 2.439-3.018 4.244-3.961c1.832-.97 3.894-1.455 6.184-1.455s4.339.485 6.144 1.455c1.805.943 3.22 2.264 4.244 3.961s1.536 3.624 1.536 5.78-.512 4.083-1.536 5.78-2.439 3.032-4.244 4.002c-1.805.943-3.853 1.415-6.144 1.415zm0-5.174c1.617 0 2.937-.539 3.961-1.617 1.051-1.105 1.576-2.573 1.576-4.406s-.525-3.288-1.576-4.365c-1.024-1.105-2.344-1.657-3.961-1.657s-2.951.552-4.002 1.657c-1.051 1.078-1.576 2.533-1.576 4.365s.525 3.301 1.576 4.406c1.051 1.078 2.385 1.617 4.002 1.617zm29.356-17.219c2.695 0 4.864.808 6.508 2.425 1.671 1.617 2.506 4.015 2.506 7.195v12.45h-6.306v-11.48c0-1.725-.377-3.005-1.132-3.84-.755-.862-1.846-1.293-3.274-1.293-1.59 0-2.856.499-3.8 1.496-.943.97-1.415 2.425-1.415 4.365v10.752h-6.305V8.569h6.022v2.547c.835-.916 1.873-1.617 3.112-2.102 1.24-.512 2.6-.768 4.083-.768zm34.808 22.312c-2.102 0-4.123-.337-6.063-1.011-1.913-.674-3.395-1.563-4.446-2.668l1.172-2.304c1.024 1.024 2.385 1.859 4.083 2.506a15.2 15.2 0 0 0 5.255.93c2.533 0 4.433-.458 5.699-1.374 1.267-.943 1.9-2.156 1.9-3.638 0-1.132-.35-2.035-1.051-2.708-.674-.674-1.509-1.186-2.506-1.536-.997-.377-2.385-.781-4.163-1.213l-5.093-1.536c-1.267-.512-2.358-1.28-3.274-2.304-.889-1.024-1.334-2.412-1.334-4.163 0-1.428.377-2.722 1.132-3.88.755-1.186 1.913-2.129 3.476-2.829s3.503-1.051 5.821-1.051a16.46 16.46 0 0 1 4.729.687c1.563.431 2.91 1.037 4.042 1.819l-1.011 2.385c-1.186-.781-2.452-1.361-3.8-1.738-1.347-.404-2.668-.606-3.961-.606-2.479 0-4.352.485-5.619 1.455-1.24.943-1.859 2.169-1.859 3.678 0 1.132.337 2.048 1.011 2.749.701.674 1.563 1.199 2.587 1.576l4.204 1.172c2.075.512 3.746 1.024 5.012 1.536 1.293.485 2.385 1.24 3.274 2.264.889.997 1.334 2.358 1.334 4.083a6.98 6.98 0 0 1-1.172 3.921c-.755 1.159-1.927 2.088-3.517 2.789-1.59.674-3.544 1.011-5.861 1.011zm16.461-21.504h2.87v21.261h-2.87V9.054zm1.456-4.648c-.593 0-1.091-.202-1.496-.606a1.98 1.98 0 0 1-.606-1.455c0-.539.202-1.011.606-1.415s.903-.606 1.496-.606 1.091.202 1.496.606c.404.377.606.835.606 1.374 0 .593-.202 1.091-.606 1.496s-.903.606-1.496.606zm35.915 4.487c2.668 0 4.756.768 6.265 2.304 1.536 1.536 2.304 3.8 2.304 6.791v12.328h-2.87V18.271c0-2.21-.539-3.894-1.617-5.053-1.051-1.159-2.547-1.738-4.487-1.738-2.21 0-3.948.687-5.214 2.061-1.267 1.347-1.9 3.22-1.9 5.619v11.156h-2.87V18.271c0-2.21-.539-3.894-1.617-5.053-1.051-1.159-2.56-1.738-4.527-1.738-2.183 0-3.921.687-5.214 2.061-1.267 1.347-1.9 3.22-1.9 5.619v11.156h-2.87V9.055h2.749v3.88c.755-1.293 1.805-2.291 3.153-2.991s2.897-1.051 4.648-1.051c1.779 0 3.315.377 4.608 1.132 1.32.755 2.304 1.873 2.951 3.355a8.18 8.18 0 0 1 3.355-3.274c1.482-.808 3.166-1.213 5.053-1.213zm16.354.161h2.87v21.261h-2.87V9.054zm1.455-4.648c-.593 0-1.091-.202-1.496-.606a1.98 1.98 0 0 1-.606-1.455c0-.539.202-1.011.606-1.415s.903-.606 1.496-.606 1.091.202 1.496.606c.404.377.606.835.606 1.374 0 .593-.202 1.091-.606 1.496s-.903.606-1.496.606zm16.837 4.487c2.776 0 4.904.701 6.387 2.102 1.482 1.374 2.223 3.422 2.223 6.144v13.177h-2.749v-3.315c-.647 1.105-1.603 1.967-2.87 2.587-1.24.62-2.722.93-4.446.93-2.371 0-4.258-.566-5.659-1.698s-2.102-2.627-2.102-4.487c0-1.805.647-3.261 1.94-4.365 1.32-1.105 3.409-1.657 6.265-1.657h6.75v-1.293c0-1.832-.512-3.22-1.536-4.163-1.024-.97-2.52-1.455-4.487-1.455-1.347 0-2.641.229-3.88.687-1.24.431-2.304 1.037-3.193 1.819l-1.293-2.142c1.078-.916 2.371-1.617 3.88-2.102 1.509-.512 3.099-.768 4.77-.768zm-1.01 19.361c1.617 0 3.005-.364 4.163-1.091 1.159-.755 2.021-1.832 2.587-3.234v-3.476h-6.669c-3.638 0-5.457 1.267-5.457 3.8 0 1.24.472 2.223 1.415 2.951.943.701 2.264 1.051 3.961 1.051zm3.84-22.757c-.62 0-1.172-.135-1.657-.404-.485-.296-1.011-.701-1.576-1.213-.485-.404-.876-.687-1.172-.849-.269-.189-.566-.283-.889-.283-.62 0-1.118.229-1.496.687s-.579 1.091-.606 1.9h-1.738c.054-1.347.404-2.425 1.051-3.234S296.34.888 297.418.888c.62 0 1.159.135 1.617.404.485.269 1.037.674 1.657 1.213.431.377.795.66 1.091.849a1.7 1.7 0 0 0 .93.283c.593 0 1.078-.216 1.455-.647.377-.458.593-1.078.647-1.859h1.738c-.054 1.32-.404 2.385-1.051 3.193-.647.781-1.509 1.172-2.587 1.172zm22.344 25.021c-2.048 0-3.894-.458-5.538-1.374-1.644-.943-2.937-2.237-3.88-3.88s-1.415-3.503-1.415-5.578.472-3.934 1.415-5.578 2.237-2.924 3.88-3.84 3.49-1.374 5.538-1.374 3.894.458 5.538 1.374a9.74 9.74 0 0 1 3.84 3.84c.943 1.644 1.415 3.503 1.415 5.578s-.472 3.934-1.415 5.578c-.916 1.644-2.196 2.937-3.84 3.88-1.644.916-3.49 1.374-5.538 1.374zm0-2.547c1.509 0 2.856-.337 4.042-1.011 1.213-.701 2.156-1.684 2.829-2.951s1.011-2.708 1.011-4.325-.337-3.059-1.011-4.325-1.617-2.237-2.829-2.91c-1.186-.701-2.533-1.051-4.042-1.051s-2.87.35-4.083 1.051c-1.186.674-2.129 1.644-2.829 2.91-.674 1.267-1.011 2.708-1.011 4.325s.337 3.059 1.011 4.325c.701 1.267 1.644 2.25 2.829 2.951 1.213.674 2.573 1.011 4.083 1.011z"/></svg>