<svg xmlns="http://www.w3.org/2000/svg" width="36" height="32"  xmlns:v="https://vecta.io/nano"><path d="M16 13.176h16.941c1.559 0 2.824 1.264 2.824 2.824s-1.264 2.824-2.824 2.824H16c-1.559 0-2.824-1.264-2.824-2.824S14.44 13.176 16 13.176zM2.824 0h30.118c1.559 0 2.824 1.264 2.824 2.824s-1.264 2.824-2.824 2.824H2.824C1.265 5.648 0 4.384 0 2.824S1.264 0 2.824 0zm0 26.353h30.118c1.559 0 2.824 1.264 2.824 2.824s-1.264 2.824-2.824 2.824H2.824C1.265 32.001 0 30.737 0 29.177s1.264-2.824 2.824-2.824z"/></svg>