<svg width="40" height="39" fill="none" xmlns="http://www.w3.org/2000/svg"><path d="M33.49 5.922A18.773 18.773 0 0019.998.25C9.514.25.92 8.844.92 19.328c0 3.438.945 6.703 2.578 9.54L.834 38.75l10.055-2.578c2.836 1.46 5.93 2.32 9.11 2.32 10.57 0 19.335-8.594 19.335-19.078 0-5.156-2.234-9.883-5.844-13.492zM19.998 35.227c-2.836 0-5.586-.774-8.078-2.235l-.515-.344-6.016 1.633 1.633-5.843-.43-.602c-1.547-2.578-2.406-5.5-2.406-8.508 0-8.68 7.133-15.812 15.898-15.812 4.211 0 8.164 1.632 11.172 4.64 3.008 3.008 4.813 6.961 4.813 11.258 0 8.68-7.305 15.813-16.07 15.813zm8.766-11.86c-.516-.258-2.836-1.375-3.266-1.547-.43-.172-.773-.258-1.117.258-.258.43-1.203 1.547-1.46 1.89-.345.259-.602.345-1.032.087-2.836-1.375-4.64-2.492-6.531-5.672-.516-.86.515-.774 1.375-2.578.171-.344.086-.602 0-.86s-1.117-2.578-1.461-3.523c-.43-.945-.774-.86-1.117-.86h-.86c-.344 0-.86.086-1.289.602-.43.516-1.633 1.633-1.633 3.953 0 2.406 1.633 4.64 1.89 4.985.259.257 3.353 5.07 8.165 7.132 3.008 1.375 4.21 1.461 5.758 1.203.86-.085 2.75-1.117 3.18-2.234.43-1.117.43-2.062.257-2.234-.086-.258-.43-.344-.86-.602z" fill="#41B883"/></svg>