<svg width="314" height="314" viewBox="0 0 314 314" fill="none" xmlns="http://www.w3.org/2000/svg">
<path d="M157 0.0625C70.2702 0.0625 0 70.3047 0 157C0 243.695 70.2702 313.938 157 313.938C243.73 313.938 314 243.695 314 157C314 70.3047 243.73 0.0625 157 0.0625ZM157 283.562C87.173 283.562 30.3871 226.799 30.3871 157C30.3871 87.2008 87.173 30.4375 157 30.4375C226.827 30.4375 283.613 87.2008 283.613 157C283.613 226.799 226.827 283.562 157 283.562ZM162.065 187.375C153.708 187.375 146.871 194.209 146.871 202.562C146.871 210.916 153.708 217.75 162.065 217.75C177.131 217.75 191.375 224.395 201.061 235.975C206.189 242.177 215.748 243.505 222.459 237.937C228.916 232.558 229.802 223.002 224.421 216.548C208.911 198.006 186.184 187.375 162.065 187.375ZM106.355 146.875C117.56 146.875 126.613 137.826 126.613 126.625C126.613 115.424 117.56 106.375 106.355 106.375C95.1496 106.375 86.0968 115.424 86.0968 126.625C86.0968 137.826 95.1496 146.875 106.355 146.875ZM207.645 106.375C196.44 106.375 187.387 115.424 187.387 126.625C187.387 137.826 196.44 146.875 207.645 146.875C218.85 146.875 227.903 137.826 227.903 126.625C227.903 115.424 218.85 106.375 207.645 106.375ZM102.81 168.897C95.5927 178.579 79.7661 200.917 79.7661 211.991C79.7661 226.356 91.6677 238 106.355 238C121.042 238 132.944 226.356 132.944 211.991C132.944 200.917 117.117 178.579 109.9 168.897C108.127 166.555 104.582 166.555 102.81 168.897Z" fill="white"/>
</svg>
