<svg xmlns="http://www.w3.org/2000/svg" width="26" height="32" fill="none"  xmlns:v="https://vecta.io/nano"><path d="M13 5c-3.91 0-7.091 2.691-7.091 6 0 .553.529 1 1.182 1s1.182-.447 1.182-1c0-2.206 2.121-4 4.727-4 .653 0 1.182-.448 1.182-1S13.653 5 13 5zM7.095 28.699a.89.89 0 0 0 .198.553l1.81 2.302c.219.279.589.446.984.446h5.824c.396 0 .765-.168.984-.446l1.81-2.302a.9.9 0 0 0 .198-.553L18.908 26H7.092l.003 2.699zM13 0C5.445 0 0 5.186 0 11c0 2.773 1.215 5.303 3.218 7.236 1.229 1.187 3.157 3.675 3.872 5.76v.004h3.545v-.008c-.001-.298-.053-.594-.159-.879-.413-1.113-1.686-4.048-4.592-6.855C4.367 14.795 3.556 12.937 3.549 11 3.534 6.398 7.957 3 13 3c5.213 0 9.455 3.589 9.455 8 0 1.936-.83 3.803-2.338 5.259-2.889 2.788-4.167 5.717-4.587 6.841-.108.289-.163.59-.164.894v.006h3.545v-.003c.715-2.086 2.643-4.574 3.872-5.76C24.785 16.303 26 13.773 26 11c0-6.075-5.82-11-13-11z" fill="#06d6a0"/></svg>