<svg width="46" height="41" viewBox="0 0 46 41" fill="none" xmlns="http://www.w3.org/2000/svg">
<path d="M45.1324 18.3323L25.0537 0.75888C24.4978 0.272954 23.7442 0 22.9585 0C22.1728 0 21.4192 0.272954 20.8633 0.75888L16.6884 4.40923L21.9784 9.03798C24.7569 8.21681 27.3875 10.5447 26.4337 12.9624L31.5327 17.424C35.0474 16.3638 37.8145 20.2092 35.1747 22.5172C32.4547 24.8972 27.9656 22.2594 29.4247 19.1625L24.6655 15.0036V25.9511C27.2633 27.0777 26.9512 29.711 25.5979 30.8925C24.9367 31.4707 24.0401 31.7955 23.1053 31.7955C22.1705 31.7955 21.274 31.4707 20.6128 30.8925C18.8087 29.3112 19.4762 26.6779 21.7679 25.8612V14.8104C19.6322 14.0459 19.242 12.0486 19.854 10.7675L14.639 6.19892L0.867716 18.2506C0.312121 18.7368 0 19.3962 0 20.0838C0 20.7714 0.312121 21.4308 0.867716 21.9171L20.9527 39.4905C21.5083 39.9764 22.2618 40.2493 23.0473 40.2493C23.8329 40.2493 24.5863 39.9764 25.142 39.4905L45.1324 21.9988C45.688 21.5126 46.0002 20.8532 46.0002 20.1656C46.0002 19.478 45.688 18.8186 45.1324 18.3323V18.3323Z" fill="#F74E27"/>
</svg>
