<svg xmlns="http://www.w3.org/2000/svg" width="39" height="32"  xmlns:v="https://vecta.io/nano"><path d="M14.946 21.295c0-1.688-.884-4.42-2.973-4.42S9 19.607 9 21.295s.884 4.42 2.973 4.42 2.973-2.732 2.973-4.42zm23.625-4.018c0-3.375-.964-6.589-3.134-9.241.402-1.205.563-2.491.563-3.857 0-1.688-.402-2.571-1.125-4.179-3.616 0-5.946.723-8.678 2.893-2.089-.563-4.339-.804-6.509-.804-2.33 0-4.741.321-7.071.804C9.804.723 7.474 0 3.858 0c-.804 1.607-1.205 2.491-1.205 4.179 0 1.366.241 2.652.643 3.937-2.25 2.571-3.295 5.786-3.295 9.161 0 2.571.402 5.304 1.607 7.634 3.134 6.187 12.054 5.946 18.08 5.946s14.384.161 17.437-5.946c1.125-2.411 1.446-5.063 1.446-7.634zm-5.223 4.018c0 7.071-6.429 8.116-12.054 8.116h-3.938c-5.625 0-12.054-1.045-12.054-8.116 0-3.536 2.17-6.589 5.946-6.589 1.527 0 2.973.241 4.5.482 1.205.161 2.33.241 3.616.241a27.28 27.28 0 0 0 3.616-.241c1.527-.241 2.973-.482 4.5-.482 3.777 0 5.866 3.054 5.866 6.589zm-6.589-4.42c-2.089 0-2.973 2.732-2.973 4.42s.884 4.42 2.973 4.42c2.009 0 2.893-2.732 2.893-4.42s-.884-4.42-2.893-4.42z"/></svg>