<svg width="33" height="33" viewBox="0 0 33 33" fill="none" xmlns="http://www.w3.org/2000/svg">
<path d="M16.3979 8.3287C11.8979 8.3287 8.31201 11.985 8.31201 16.4146C8.31201 20.9146 11.8979 24.5006 16.3979 24.5006C20.8276 24.5006 24.4839 20.9146 24.4839 16.4146C24.4839 11.985 20.8276 8.3287 16.3979 8.3287ZM16.3979 21.6881C13.5151 21.6881 11.1245 19.3678 11.1245 16.4146C11.1245 13.5318 13.4448 11.2115 16.3979 11.2115C19.2808 11.2115 21.6011 13.5318 21.6011 16.4146C21.6011 19.3678 19.2808 21.6881 16.3979 21.6881ZM26.6636 8.04745C26.6636 6.99277 25.8198 6.14902 24.7651 6.14902C23.7104 6.14902 22.8667 6.99277 22.8667 8.04745C22.8667 9.10214 23.7104 9.94589 24.7651 9.94589C25.8198 9.94589 26.6636 9.10214 26.6636 8.04745ZM32.0073 9.94589C31.8667 7.41464 31.3042 5.16464 29.4761 3.33652C27.6479 1.50839 25.3979 0.945892 22.8667 0.805267C20.2651 0.664642 12.4604 0.664642 9.85889 0.805267C7.32764 0.945892 5.14795 1.50839 3.24951 3.33652C1.42139 5.16464 0.858887 7.41464 0.718262 9.94589C0.577637 12.5475 0.577637 20.3521 0.718262 22.9537C0.858887 25.485 1.42139 27.6646 3.24951 29.5631C5.14795 31.3912 7.32764 31.9537 9.85889 32.0943C12.4604 32.235 20.2651 32.235 22.8667 32.0943C25.3979 31.9537 27.6479 31.3912 29.4761 29.5631C31.3042 27.6646 31.8667 25.485 32.0073 22.9537C32.1479 20.3521 32.1479 12.5475 32.0073 9.94589ZM28.6323 25.6959C28.1401 27.1021 27.0151 28.1568 25.6792 28.7193C23.5698 29.5631 18.6479 29.3521 16.3979 29.3521C14.0776 29.3521 9.15576 29.5631 7.1167 28.7193C5.71045 28.1568 4.65576 27.1021 4.09326 25.6959C3.24951 23.6568 3.46045 18.735 3.46045 16.4146C3.46045 14.1646 3.24951 9.24277 4.09326 7.13339C4.65576 5.79745 5.71045 4.74277 7.1167 4.18027C9.15576 3.33652 14.0776 3.54745 16.3979 3.54745C18.6479 3.54745 23.5698 3.33652 25.6792 4.18027C27.0151 4.67245 28.0698 5.79745 28.6323 7.13339C29.4761 9.24277 29.2651 14.1646 29.2651 16.4146C29.2651 18.735 29.4761 23.6568 28.6323 25.6959Z" fill="#9B36B7"/>
<path d="M16.3979 8.3287C11.8979 8.3287 8.31201 11.985 8.31201 16.4146C8.31201 20.9146 11.8979 24.5006 16.3979 24.5006C20.8276 24.5006 24.4839 20.9146 24.4839 16.4146C24.4839 11.985 20.8276 8.3287 16.3979 8.3287ZM16.3979 21.6881C13.5151 21.6881 11.1245 19.3678 11.1245 16.4146C11.1245 13.5318 13.4448 11.2115 16.3979 11.2115C19.2808 11.2115 21.6011 13.5318 21.6011 16.4146C21.6011 19.3678 19.2808 21.6881 16.3979 21.6881ZM26.6636 8.04745C26.6636 6.99277 25.8198 6.14902 24.7651 6.14902C23.7104 6.14902 22.8667 6.99277 22.8667 8.04745C22.8667 9.10214 23.7104 9.94589 24.7651 9.94589C25.8198 9.94589 26.6636 9.10214 26.6636 8.04745ZM32.0073 9.94589C31.8667 7.41464 31.3042 5.16464 29.4761 3.33652C27.6479 1.50839 25.3979 0.945892 22.8667 0.805267C20.2651 0.664642 12.4604 0.664642 9.85889 0.805267C7.32764 0.945892 5.14795 1.50839 3.24951 3.33652C1.42139 5.16464 0.858887 7.41464 0.718262 9.94589C0.577637 12.5475 0.577637 20.3521 0.718262 22.9537C0.858887 25.485 1.42139 27.6646 3.24951 29.5631C5.14795 31.3912 7.32764 31.9537 9.85889 32.0943C12.4604 32.235 20.2651 32.235 22.8667 32.0943C25.3979 31.9537 27.6479 31.3912 29.4761 29.5631C31.3042 27.6646 31.8667 25.485 32.0073 22.9537C32.1479 20.3521 32.1479 12.5475 32.0073 9.94589ZM28.6323 25.6959C28.1401 27.1021 27.0151 28.1568 25.6792 28.7193C23.5698 29.5631 18.6479 29.3521 16.3979 29.3521C14.0776 29.3521 9.15576 29.5631 7.1167 28.7193C5.71045 28.1568 4.65576 27.1021 4.09326 25.6959C3.24951 23.6568 3.46045 18.735 3.46045 16.4146C3.46045 14.1646 3.24951 9.24277 4.09326 7.13339C4.65576 5.79745 5.71045 4.74277 7.1167 4.18027C9.15576 3.33652 14.0776 3.54745 16.3979 3.54745C18.6479 3.54745 23.5698 3.33652 25.6792 4.18027C27.0151 4.67245 28.0698 5.79745 28.6323 7.13339C29.4761 9.24277 29.2651 14.1646 29.2651 16.4146C29.2651 18.735 29.4761 23.6568 28.6323 25.6959Z" fill="url(#paint0_linear)"/>
<defs>
<linearGradient id="paint0_linear" x1="27.0743" y1="-4.08536" x2="27.0743" y2="38" gradientUnits="userSpaceOnUse">
<stop stop-color="#FF0000"/>
<stop offset="1" stop-color="white" stop-opacity="0"/>
</linearGradient>
</defs>
</svg>
