<svg width="36" height="36" viewBox="0 0 36 36" fill="none" xmlns="http://www.w3.org/2000/svg">
<path d="M0.5 0.5V35.5H35.5V0.5H0.5ZM19.4844 27.8438C19.4844 31.2031 17.5312 32.7656 14.5625 32.7656C11.9844 32.7656 10.4219 31.4375 9.64062 29.7969L12.375 28.1562C12.8438 29.0938 13.3125 29.875 14.4844 29.875C15.5 29.875 16.2031 29.4062 16.2031 27.7656V16.5938H19.4844V27.8438ZM27.2969 32.7656C24.25 32.7656 22.2969 31.3594 21.2812 29.4062L24.0156 27.9219C24.7188 29.0156 25.5781 29.875 27.2188 29.875C28.5469 29.875 29.4844 29.1719 29.4844 28.2344C29.4844 27.1406 28.5469 26.75 27.0625 26.0469L26.2031 25.7344C23.8594 24.7188 22.2969 23.4688 22.2969 20.7344C22.2969 18.3125 24.1719 16.4375 27.1406 16.4375C29.1719 16.4375 30.7344 17.1406 31.75 19.0156L29.25 20.6562C28.625 19.7188 28.0781 19.25 27.0625 19.25C26.125 19.25 25.5 19.875 25.5 20.6562C25.5 21.6719 26.125 22.0625 27.5312 22.6875L28.3906 23.0781C31.2031 24.25 32.7656 25.5 32.7656 28.2344C32.7656 31.2031 30.4219 32.7656 27.2969 32.7656Z" fill="#EFD81D"/>
</svg>
