<svg xmlns="http://www.w3.org/2000/svg" width="26" height="32" fill="none"  xmlns:v="https://vecta.io/nano"><path d="M7.095 28.397a1.79 1.79 0 0 0 .396 1.106l1.262 1.606c.216.274.508.5.851.655a2.71 2.71 0 0 0 1.116.237h4.558a2.71 2.71 0 0 0 1.116-.237 2.27 2.27 0 0 0 .851-.655l1.262-1.606c.258-.328.395-.712.396-1.106L18.908 26H7.092l.004 2.397zM0 11c0 2.773 1.215 5.303 3.218 7.236 1.22 1.178 3.129 3.639 3.856 5.716l.008.049h11.836l.008-.049c.727-2.076 2.636-4.537 3.856-5.716C24.785 16.303 26 13.773 26 11 26 4.913 20.158-.019 12.959 0 5.425.019 0 5.186 0 11zm13-5c-3.258 0-5.909 2.243-5.909 5 0 .553-.529 1-1.182 1s-1.182-.447-1.182-1c0-3.86 3.711-7 8.273-7 .653 0 1.182.447 1.182 1S13.653 6 13 6z" fill="#5ed3f3"/></svg>