<svg xmlns="http://www.w3.org/2000/svg" width="56" height="32"  xmlns:v="https://vecta.io/nano"><path d="M14.276.256c2.787 0 5.198.464 7.236 1.393 2.067.929 3.655 2.247 4.764 3.955s1.663 3.73 1.663 6.067c0 2.307-.554 4.33-1.663 6.067-1.109 1.708-2.697 3.026-4.764 3.955-2.038.899-4.449 1.348-7.236 1.348H7.939v8.674H.658V.254h13.618zm-.405 16.854c2.187 0 3.85-.464 4.989-1.393 1.139-.959 1.708-2.307 1.708-4.045 0-1.768-.569-3.116-1.708-4.045-1.139-.959-2.802-1.438-4.989-1.438H7.938V17.11h5.933zm29.772 14.876c-2.337 0-4.584-.375-6.742-1.124-2.127-.749-3.775-1.738-4.944-2.966l1.303-2.562c1.139 1.139 2.652 2.067 4.539 2.787 1.888.689 3.835 1.034 5.843 1.034 2.816 0 4.929-.509 6.337-1.528 1.408-1.049 2.112-2.397 2.112-4.045 0-1.258-.389-2.262-1.169-3.011-.749-.749-1.678-1.318-2.787-1.708-1.109-.42-2.652-.869-4.629-1.348l-5.663-1.708c-1.408-.569-2.622-1.423-3.64-2.562-.989-1.139-1.483-2.682-1.483-4.629 0-1.588.42-3.026 1.258-4.315.839-1.318 2.127-2.367 3.865-3.146s3.895-1.169 6.472-1.169c1.798 0 3.551.255 5.258.764 1.738.479 3.236 1.154 4.494 2.022l-1.124 2.652c-1.318-.869-2.727-1.513-4.225-1.933-1.498-.449-2.966-.674-4.404-.674-2.757 0-4.839.539-6.247 1.618C36.689 5.484 36 6.847 36 8.525c0 1.258.375 2.277 1.124 3.056.779.749 1.738 1.333 2.876 1.753l4.674 1.303c2.307.569 4.165 1.139 5.573 1.708a8.85 8.85 0 0 1 3.64 2.517c.989 1.109 1.483 2.622 1.483 4.539 0 1.588-.434 3.041-1.303 4.36-.839 1.288-2.142 2.322-3.91 3.101-1.768.749-3.94 1.124-6.517 1.124z"/></svg>