<svg width="40" height="36" viewBox="0 0 40 36" fill="none" xmlns="http://www.w3.org/2000/svg">
<path d="M32.6562 11.9062C32.1875 11.75 31.7969 11.5938 31.4062 11.5156C31.4062 11.2031 31.4844 10.8906 31.5625 10.5781C32.5 5.96875 31.875 2.21875 29.7656 0.96875C27.7344 -0.203125 24.375 1.04688 20.9375 4.01562C20.625 4.25 20.3125 4.5625 20 4.875C19.7656 4.64062 19.5312 4.48438 19.375 4.25C15.7812 1.125 12.1875 -0.203125 10.0781 1.04688C8.04688 2.21875 7.42188 5.73438 8.28125 10.1875C8.35938 10.5781 8.4375 11.0469 8.59375 11.4375C8.04688 11.5938 7.57812 11.75 7.10938 11.9062C2.96875 13.3906 0 15.6562 0 18C0 20.4219 3.125 22.9219 7.5 24.4062C7.8125 24.4844 8.20312 24.6406 8.51562 24.7188C8.4375 25.1875 8.35938 25.6562 8.20312 26.125C7.42188 30.4219 8.04688 33.8594 10.0781 35.0312C12.1875 36.2812 15.7812 35.0312 19.2188 31.9844C19.4531 31.75 19.7656 31.5156 20 31.2812C20.3906 31.5938 20.7031 31.9062 21.0938 32.2188C24.4531 35.1094 27.7344 36.2812 29.7656 35.1094C31.875 33.8594 32.5781 30.1875 31.7188 25.6562C31.6406 25.3438 31.5625 24.9531 31.4844 24.6406C31.7188 24.5625 31.9531 24.4844 32.1875 24.4062C36.7188 22.9219 40 20.5 40 18C40 15.6562 36.875 13.3125 32.6562 11.9062ZM22.0312 5.26562C25 2.6875 27.6562 1.75 28.9062 2.45312C30.2344 3.15625 30.7812 6.28125 29.9219 10.2656C29.8438 10.5781 29.8438 10.8125 29.7656 11.0469C27.9688 10.6562 26.25 10.4219 24.4531 10.2656C23.4375 8.78125 22.3438 7.375 21.1719 6.04688C21.4844 5.8125 21.7188 5.5 22.0312 5.26562ZM13.0469 22.0625C13.4375 22.7656 13.8281 23.3906 14.2969 24.0938C13.0469 23.9375 11.7969 23.7812 10.625 23.4688C11.0156 22.375 11.4062 21.2031 11.875 20.0312C12.2656 20.7344 12.6562 21.3594 13.0469 22.0625ZM10.625 12.6875C11.7969 12.375 12.9688 12.2188 14.2188 12.0625C13.8281 12.6875 13.4375 13.3906 13.0469 14.0156C12.6562 14.7188 12.2656 15.3438 11.875 16.0469C11.4062 14.875 11.0156 13.7812 10.625 12.6875ZM12.8125 18.0781C13.2812 16.9844 13.9062 15.8906 14.4531 14.875C15.0781 13.8594 15.7031 12.8438 16.4062 11.8281C17.5781 11.75 18.75 11.6719 20 11.6719C21.1719 11.6719 22.4219 11.75 23.5156 11.8281C24.2188 12.8438 24.8438 13.8594 25.4688 14.875C26.0156 15.8906 26.6406 16.9062 27.1094 18C26.6406 19.0938 26.0938 20.1875 25.4688 21.2031C24.8438 22.2188 24.2188 23.2344 23.5938 24.25C22.4219 24.3281 21.1719 24.4062 20 24.4062C18.75 24.4062 17.5781 24.3281 16.4062 24.25C15.7031 23.2344 15.0781 22.2188 14.4531 21.2031C13.9062 20.1875 13.3594 19.0938 12.8125 18.0781ZM26.875 22.0625C27.3438 21.3594 27.6562 20.6562 28.0469 19.9531C28.5156 21.125 28.9844 22.2188 29.375 23.3906C28.125 23.7031 26.9531 23.9375 25.7031 24.0156C26.0938 23.3906 26.4844 22.6875 26.875 22.0625ZM28.0469 16.0469C27.6562 15.3438 27.2656 14.7188 26.875 14.0156C26.4844 13.3906 26.0938 12.6875 25.7031 12.0625C26.9531 12.2188 28.2031 12.4531 29.2969 12.6875C28.9062 13.8594 28.5156 14.9531 28.0469 16.0469ZM20 7.29688C20.7812 8.15625 21.5625 9.09375 22.2656 10.1094C20.7812 10.0312 19.2188 10.0312 17.6562 10.1094C18.4375 9.09375 19.2188 8.15625 20 7.29688ZM10.9375 2.45312C12.2656 1.75 15.1562 2.84375 18.2031 5.5C18.4375 5.73438 18.5938 5.89062 18.8281 6.04688C17.5781 7.375 16.4844 8.78125 15.4688 10.2656C13.6719 10.4219 11.9531 10.6562 10.2344 11.0469C10.0781 10.6562 10 10.2656 9.92188 9.79688C9.21875 6.04688 9.6875 3.23438 10.9375 2.45312ZM8.98438 23.0781C8.67188 23 8.35938 22.9219 8.04688 22.7656C6.40625 22.2188 4.45312 21.4375 3.125 20.3438C2.34375 19.7969 1.79688 18.9375 1.64062 18C1.64062 16.5938 4.14062 14.7188 7.65625 13.4688C8.125 13.3125 8.59375 13.2344 9.0625 13.0781C9.53125 14.7969 10.2344 16.4375 10.9375 18.0781C10.1562 19.6406 9.53125 21.3594 8.98438 23.0781ZM18.125 30.7344C16.7969 31.9062 15.3125 32.8438 13.6719 33.4688C12.8125 33.9375 11.875 33.9375 10.9375 33.625C9.6875 32.8438 9.21875 30.1094 9.92188 26.4375C10 25.9688 10.0781 25.5 10.1562 25.1094C11.9531 25.5 13.6719 25.7344 15.4688 25.8906C16.4844 27.2969 17.6562 28.7031 18.8281 30.0312C18.5938 30.2656 18.3594 30.5 18.125 30.7344ZM20 28.8594C19.2188 28 18.4375 27.0625 17.6562 25.9688C18.4375 26.0469 19.2188 26.0469 20 26.0469C20.7812 26.0469 21.5625 26.0469 22.3438 25.9688C21.6406 26.9844 20.8594 27.9219 20 28.8594ZM30.2344 31.2031C30.1562 32.1406 29.6875 33 28.9844 33.625C27.7344 34.3281 25.0781 33.3906 22.1875 30.9688C21.875 30.6562 21.5625 30.3438 21.1719 30.0312C22.4219 28.7031 23.5156 27.375 24.5312 25.8906C26.3281 25.7344 28.0469 25.4219 29.8438 25.0312C29.9219 25.3438 30 25.6562 30.0781 25.9688C30.3906 27.6875 30.4688 29.4844 30.2344 31.2031ZM31.6406 22.7656C31.4062 22.8438 31.25 22.9219 31.0156 23C30.4688 21.2812 29.7656 19.6406 28.9844 18C29.7656 16.4375 30.3906 14.7969 30.9375 13.0781C31.3281 13.2344 31.7188 13.3125 32.1094 13.4688C35.7031 14.7188 38.2812 16.5938 38.2812 18C38.2812 19.4844 35.5469 21.5156 31.6406 22.7656ZM20 21.5938C21.9531 21.5938 23.5156 20.0312 23.5156 18C23.5156 16.0469 21.9531 14.4844 20 14.4844C17.9688 14.4844 16.4062 16.0469 16.4062 18C16.4062 20.0312 17.9688 21.5938 20 21.5938Z" fill="#5ED3F3"/>
</svg>
