<svg width="51" height="38" viewBox="0 0 51 38" fill="none" xmlns="http://www.w3.org/2000/svg">
<path d="M24.5156 28.6094C24.5156 28.6875 24.5156 28.6875 24.5156 28.6094V28.6094ZM43.9688 21.8125C42.4062 21.8125 40.8438 22.2031 39.4375 22.9062C39.0469 21.9688 38.5 21.1875 38.4219 20.5625C38.3438 19.8594 38.2656 19.3906 38.3438 18.6094C38.5 17.75 38.9688 16.5 38.9688 16.4219C38.9688 16.3438 38.8906 15.9531 37.875 15.9531C36.8594 15.9531 36 16.1094 35.8438 16.4219C35.6875 16.8906 35.5312 17.3594 35.4531 17.9062C35.2969 18.7656 33.4219 22.0469 32.4062 23.7656C32.0938 23.0625 31.7812 22.5156 31.7031 22.0469C31.625 21.3438 31.5469 20.875 31.625 20.0938C31.7031 19.2344 32.25 18.0625 32.25 17.9062C32.1719 17.8281 32.0938 17.4375 31.0781 17.4375C30.0625 17.4375 29.2031 17.5938 29.125 17.9062C29.0469 18.1406 28.8906 18.7656 28.7344 19.3906C28.5 19.9375 26.0781 25.4062 25.4531 26.8125C25.0625 27.5156 24.8281 28.1406 24.5938 28.5312C24.5938 28.6094 24.5938 28.6094 24.5156 28.6094C24.5938 28.6094 24.5938 28.5312 24.5938 28.6094C24.4375 28.9219 24.2812 29.0781 24.2812 29.0781C24.2031 29.3906 24.0469 29.625 23.9688 29.625C23.8906 29.625 23.8125 28.9219 23.9688 28.0625C24.3594 26.1094 25.2188 23.2188 25.2188 23.1406C25.2188 23.0625 25.375 22.5156 24.6719 22.2812C23.8906 22.0469 23.6562 22.4375 23.5781 22.4375L23.5 22.5938C23.5 22.5938 24.2812 19.3125 22.0156 19.3125C20.5312 19.3125 18.5781 20.875 17.5625 22.2812C16.9375 22.5938 15.6094 23.375 14.2031 24.1562C13.6562 24.3906 13.1094 24.7031 12.5625 25.0156L12.4844 24.9375C9.67188 21.8906 4.51562 19.7812 4.75 15.7969C4.82812 14.3125 5.29688 10.4844 14.6719 5.875C22.3281 2.04688 28.4219 3.0625 29.5156 5.40625C31 8.76562 26.2344 14.9375 18.2656 15.7969C15.2188 16.1094 13.6562 14.9375 13.2656 14.5469C12.7969 14.0781 12.7969 14.0781 12.6406 14.1562C12.3281 14.2344 12.4844 14.7031 12.6406 14.9375C12.875 15.5625 13.8125 16.6562 15.4531 17.2031C16.9375 17.6719 20.5312 17.9062 24.8281 16.2656C29.5938 14.3906 33.3438 9.23438 32.25 4.85938C31.1562 0.484375 23.8906 -1 16.9375 1.5C12.7969 2.90625 8.34375 5.25 5.14062 8.21875C1.39062 11.8125 0.765625 14.8594 1 16.1875C1.9375 20.7969 8.26562 23.7656 10.7656 26.0312C10.6875 26.1094 10.5312 26.1094 10.4531 26.1875C9.125 26.8125 4.35938 29.3906 3.10938 32.0469C1.78125 35.0938 3.34375 37.2812 4.35938 37.5156C7.64062 38.4531 11 36.8125 12.7969 34.1562C14.5938 31.4219 14.3594 27.9844 13.5 26.3438C13.5 26.3438 13.5 26.3438 13.5 26.2656C13.8125 26.1094 14.2031 25.875 14.5156 25.7188C15.1406 25.3281 15.7656 25.0156 16.3125 24.7031C16 25.4844 15.7656 26.5 15.6875 27.9844C15.5312 29.7031 16.2344 31.9688 17.1719 32.8281C17.5625 33.2188 18.1094 33.2188 18.3438 33.2188C19.4375 33.2188 19.9062 32.3594 20.4531 31.2656C21.1562 29.9375 21.7031 28.4531 21.7031 28.4531C21.7031 28.4531 21 32.5156 23.0312 32.5156C23.7344 32.5156 24.4375 31.5781 24.8281 31.1094C24.8281 31.1094 24.8281 31.1094 24.8281 31.0312C24.9062 30.875 24.9844 30.7969 24.9844 30.7969C25.2969 30.3281 25.9219 29.1562 26.8594 27.2031C28.1875 24.7031 29.3594 21.6562 29.3594 21.6562C29.5156 22.2812 29.6719 22.9844 29.8281 23.6094C30.0625 24.3906 30.5312 25.1719 30.9219 25.9531C30.6094 26.4219 30.4531 26.6562 30.4531 26.6562C30.2188 26.9688 29.9062 27.2812 29.6719 27.5938C28.6562 28.8438 27.4844 30.1719 27.3281 30.5625C27.0938 31.0312 27.1719 31.3438 27.5625 31.6562C27.7969 31.8125 28.2656 31.8906 28.7344 31.8125C29.6719 31.7344 30.2969 31.5781 30.6094 31.4219C31.1562 31.1875 31.7031 30.9531 32.1719 30.5625C33.1875 29.8594 33.7344 28.8438 33.6562 27.4375C33.6562 26.7344 33.4219 25.9531 33.1094 25.25C33.1875 25.1719 33.2656 25.0156 33.4219 24.8594C34.9062 22.5938 36.1562 20.0938 36.1562 20.0938C36.2344 20.7969 36.3906 21.5 36.625 22.125C36.7812 22.75 37.1719 23.4531 37.4844 24.1562C36.0781 25.3281 35.1406 26.7344 34.8281 27.5938C34.2812 29.2344 34.75 30.0156 35.5312 30.1719C35.9219 30.25 36.4688 30.0938 36.9375 29.9375C37.4844 29.7031 38.1094 29.3906 38.5781 29.0781C39.5938 28.2969 40.5312 27.2812 40.4531 25.9531C40.4531 25.3281 40.2188 24.7031 39.9844 24.1562C41.2344 23.6094 42.875 23.2969 44.9062 23.5312C49.2031 24.0781 50.0625 26.8125 49.9062 27.9062C49.75 29.0781 48.8125 29.7031 48.5 29.8594C48.1875 30.0938 48.1094 30.0938 48.1875 30.25C48.1875 30.4844 48.3438 30.4844 48.5781 30.4062C48.9688 30.3281 50.8438 29.4688 50.9219 27.3594C51.0781 24.7031 48.5 21.8125 43.9688 21.8125ZM10.4531 33.1406C9.04688 34.7031 7.01562 35.3281 6.15625 34.7812C5.21875 34.2344 5.60938 31.9688 7.40625 30.25C8.42188 29.2344 9.82812 28.2969 10.7656 27.75C11 27.5938 11.2344 27.4375 11.625 27.2031C11.7031 27.2031 11.7031 27.125 11.7031 27.125C11.7812 27.125 11.8594 27.0469 11.9375 27.0469C12.6406 29.3906 12.0156 31.5 10.4531 33.1406ZM21 26.0312C20.4531 27.2031 19.4375 30.3281 18.8125 30.1719C18.2656 30.0938 17.875 27.6719 18.6562 25.3281C19.0469 24.1562 19.9062 22.75 20.375 22.2031C21.1562 21.3438 22.0156 21.0312 22.25 21.4219C22.4844 21.8125 21.3125 25.25 21 26.0312ZM29.6719 30.1719C29.4375 30.25 29.2031 30.3281 29.125 30.25C29.0469 30.25 29.2031 30.0938 29.2031 30.0938C29.2031 30.0938 30.2969 28.9219 30.7656 28.375C31 28.0625 31.3125 27.75 31.625 27.2812C31.625 27.3594 31.625 27.3594 31.625 27.4375C31.625 28.8438 30.2188 29.7812 29.6719 30.1719ZM36.3125 28.6094C36.1562 28.5312 36.2344 28.1406 36.7031 27.0469C36.9375 26.5781 37.4062 25.7969 38.1875 25.0938C38.2656 25.3281 38.3438 25.6406 38.3438 25.9531C38.3438 27.6719 37.0938 28.375 36.3125 28.6094Z" fill="#CF649A"/>
</svg>
