<svg xmlns="http://www.w3.org/2000/svg" width="32" height="32"  xmlns:v="https://vecta.io/nano"><path d="M31.565 27.666l-6.232-6.231a1.5 1.5 0 0 0-1.063-.437h-1.019c1.725-2.206 2.75-4.981 2.75-7.999a13 13 0 1 0-26.002 0A13 13 0 0 0 13 25.998a12.94 12.94 0 0 0 8.001-2.75v1.019a1.5 1.5 0 0 0 .437 1.062l6.232 6.231c.587.587 1.538.587 2.119 0l1.769-1.769c.588-.587.588-1.537.006-2.125zm-18.564-6.668C8.582 20.998 5 17.423 5 12.999 5 8.581 8.575 5 13.001 5c4.419 0 8.001 3.575 8.001 7.999 0 4.418-3.575 7.999-8.001 7.999z"/></svg>